<?xml version="1.0" encoding="UTF-8"?>
<svg version="1.1" xmlns="http://www.w3.org/2000/svg" width="512" height="512">
<path d="M0 0 C3.5677811 2.35149209 5.84221079 4.99692157 7.75 8.8125 C8.92683132 18.25003382 6.07375261 26.76575531 3.2734375 35.63671875 C2.7946164 37.19338472 2.31719046 38.7504804 1.84104919 40.30796814 C0.55479107 44.50223388 -0.75002697 48.69051308 -2.05816269 52.87799835 C-3.43871352 57.30948858 -4.80125653 61.74650701 -6.1652832 66.18310547 C-8.41711892 73.50103043 -10.67791886 80.81612469 -12.94482422 88.12939453 C-15.98870091 97.95261428 -19.00368949 107.7844607 -22.00390625 117.62109375 C-22.23109596 118.36585402 -22.45828568 119.11061428 -22.69235992 119.87794304 C-23.60019031 122.85417698 -24.50787246 125.83045603 -25.4152298 128.80683422 C-26.99645684 133.99333599 -28.58058711 139.1789441 -30.16650391 144.36401367 C-30.39146042 145.09950723 -30.61641693 145.83500078 -30.84819031 146.59278202 C-31.30165689 148.07536369 -31.75512521 149.55794483 -32.20859528 151.04052544 C-37.52109016 168.41099944 -42.81193484 185.7880288 -48.09739685 203.16674423 C-57.72131788 234.81014663 -67.37933517 266.44305443 -77.04948425 298.07235718 C-80.41422897 309.07787105 -83.77779015 320.08374615 -87.140625 331.08984375 C-87.38470659 331.88868799 -87.62878819 332.68753223 -87.88026619 333.51058388 C-89.09639086 337.49080579 -90.31249769 341.47103315 -91.52859497 345.45126343 C-92.6629861 349.16406018 -93.79739421 352.87685175 -94.93190479 356.58961201 C-95.36305051 358.00069925 -95.79411605 359.411811 -96.22510052 360.8229475 C-97.27838397 364.27127413 -98.33300398 367.71917985 -99.39060974 371.16618347 C-101.43437823 377.83271873 -103.46114207 384.50354988 -105.44757748 391.18742752 C-106.43459299 394.50506807 -107.42907433 397.82044988 -108.42417336 401.13567352 C-108.8990715 402.72526548 -109.37038832 404.3159324 -109.83786583 405.90772247 C-110.48803235 408.12067478 -111.15055304 410.32958987 -111.81567383 412.53808594 C-112.18992996 413.80005798 -112.5641861 415.06203003 -112.94978333 416.36224365 C-114.91436319 421.57545485 -117.43470403 425.86118957 -122.25 428.8125 C-127.06623303 430.41791101 -131.30561744 430.61591776 -135.97265625 428.6875 C-140.18608772 426.27695518 -143.99683542 423.47433384 -147.875 420.5625 C-148.70257813 419.94697266 -149.53015625 419.33144531 -150.3828125 418.69726562 C-153.00937734 416.74118684 -155.63041671 414.77791648 -158.25 412.8125 C-159.08499023 412.18666016 -159.91998047 411.56082031 -160.78027344 410.91601562 C-164.1094564 408.42010642 -167.4377236 405.92298918 -170.76391602 403.4230957 C-176.42592227 399.17012879 -182.10937814 394.94765765 -187.8125 390.75 C-188.59383301 390.17491699 -189.37516602 389.59983398 -190.18017578 389.00732422 C-194.09251264 386.12986878 -198.00807882 383.2568634 -201.92578125 380.38671875 C-211.2842178 373.52172331 -220.55058988 366.54967019 -229.76513672 359.49267578 C-235.58893313 355.04452822 -241.49140238 350.74917529 -247.48828125 346.5390625 C-250.6053566 344.31444953 -253.63791379 341.99000969 -256.66796875 339.6484375 C-257.61994141 338.91367187 -258.57191406 338.17890625 -259.55273438 337.421875 C-261.45090012 335.95166403 -263.34428317 334.47525382 -265.23242188 332.9921875 C-266.09802734 332.321875 -266.96363281 331.6515625 -267.85546875 330.9609375 C-268.63043701 330.35427246 -269.40540527 329.74760742 -270.20385742 329.12255859 C-272.2661532 327.54289617 -272.2661532 327.54289617 -275.25 327.8125 C-275.51761705 328.35142128 -275.78523411 328.89034256 -276.06096077 329.44559479 C-282.58808486 342.58837041 -289.12418065 355.72665663 -295.67015266 368.86005402 C-298.83558576 375.2115021 -301.99802091 381.56440918 -305.15332031 387.92089844 C-308.19989685 394.05833928 -311.25492756 400.19151153 -314.31509018 406.32218933 C-315.47964608 408.65867641 -316.64139043 410.99656707 -317.80023575 413.33589172 C-319.4272125 416.61899449 -321.06422837 419.89690757 -322.70361328 423.17382812 C-323.17763077 424.1362442 -323.65164825 425.09866028 -324.14002991 426.09024048 C-327.47417487 432.71816625 -330.92233044 439.49759943 -337.125 443.8125 C-342.32631335 445.47692027 -346.35894409 445.50346274 -351.5 443.625 C-355.0677811 441.27350791 -357.34221079 438.62807843 -359.25 434.8125 C-359.3445773 432.58268936 -359.37189797 430.34994843 -359.37025452 428.11813354 C-359.37153615 427.07426442 -359.37153615 427.07426442 -359.37284368 426.00930703 C-359.37449713 423.66617238 -359.36897932 421.32310857 -359.36352539 418.97998047 C-359.36324346 417.30482993 -359.36340136 415.62967927 -359.3639679 413.95452881 C-359.36425566 409.3969306 -359.35836238 404.83935853 -359.35139394 400.28176641 C-359.34515684 395.5224912 -359.34455632 390.76321544 -359.34336853 386.00393677 C-359.34025627 376.9870923 -359.33204429 367.9702599 -359.32201904 358.95342076 C-359.31085465 348.68996791 -359.30534663 338.42651449 -359.30032361 328.16305709 C-359.28986159 307.04619798 -359.27226417 285.92934975 -359.25 264.8125 C-359.91381904 264.61713811 -360.57763807 264.42177622 -361.26157284 264.22049427 C-370.03137307 261.61878425 -370.03137307 261.61878425 -374.25415039 259.98510742 C-375.11263077 259.65510239 -375.97111115 259.32509735 -376.85560608 258.98509216 C-378.21292091 258.45686607 -378.21292091 258.45686607 -379.59765625 257.91796875 C-381.07612282 257.34786827 -381.07612282 257.34786827 -382.5844574 256.76625061 C-385.82851579 255.51436712 -389.07051067 254.25723094 -392.3125 253 C-394.60013017 252.11587385 -396.88789322 251.23209148 -399.17578125 250.34863281 C-404.0164906 248.47886264 -408.85639544 246.60702925 -413.69580078 244.73388672 C-420.70350067 242.02196389 -427.71496874 239.31987666 -434.72735405 236.62009621 C-438.54582046 235.14984992 -442.36394417 233.67871395 -446.18208027 232.20761013 C-449.23657653 231.03074246 -452.291178 229.85414971 -455.34597778 228.67807007 C-460.93867168 226.5242988 -466.52891089 224.36472179 -472.11328125 222.18945312 C-476.120018 220.62945574 -480.13743235 219.10477729 -484.16796875 217.60742188 C-485.97665553 216.92081792 -487.78525456 216.23398277 -489.59375 215.546875 C-490.8093158 215.10894623 -490.8093158 215.10894623 -492.04943848 214.66217041 C-497.93815754 212.3935863 -501.36087864 209.59074272 -504.25 203.8125 C-504.77940021 198.50114048 -504.91363629 194.13977259 -502.5 189.3125 C-499.34671364 185.80884849 -496.35823659 183.66567826 -491.9519043 182.01342773 C-491.10095184 181.69062332 -490.24999939 181.36781891 -489.3732605 181.03523254 C-488.44957672 180.69231674 -487.52589294 180.34940094 -486.57421875 179.99609375 C-485.59881134 179.62792038 -484.62340393 179.25974701 -483.61843872 178.88041687 C-481.50415613 178.08321592 -479.38875232 177.28898367 -477.27236938 176.49737549 C-473.88668579 175.23099344 -470.50389591 173.95715206 -467.12182617 172.68115234 C-463.61616436 171.35858214 -460.11034701 170.03644495 -456.60365295 168.71661377 C-446.35466006 164.85866815 -436.1248318 160.95199697 -425.90127563 157.02722168 C-421.06639934 155.17125622 -416.23043805 153.31812211 -411.39453125 151.46484375 C-410.41471786 151.08929352 -409.43490448 150.71374329 -408.42539978 150.32681274 C-396.37089854 145.70749677 -384.31048373 141.10366863 -372.25 136.5 C-371.1018985 136.06173889 -369.953797 135.62347778 -368.77090454 135.17193604 C-362.93195925 132.94309545 -357.09294922 130.71442452 -351.25390625 128.48583984 C-340.89537432 124.53220858 -330.5374286 120.57704201 -320.17944336 116.62197876 C-314.4529867 114.43542177 -308.72649138 112.24896605 -303 110.0625 C-300.70833315 109.18750048 -298.41666648 108.31250048 -296.125 107.4375 C-282.37499997 102.18749999 -282.37499997 102.18749999 -278.93757629 100.87503052 C-276.64565408 99.99993202 -274.3537331 99.12483029 -272.06181335 98.24972534 C-266.33656664 96.06370588 -260.61129859 93.87774233 -254.88598633 91.69189453 C-244.52671975 87.73680193 -234.16761326 83.78129258 -223.80929565 79.82371521 C-200.46374579 70.90418563 -177.11436551 61.99513943 -153.75 53.125 C-135.93879315 46.36297994 -118.14074773 39.56737915 -100.35131836 32.74829102 C-85.72381478 27.14139442 -71.09261648 21.54421939 -56.45834351 15.95501709 C-54.06278499 15.04004195 -51.6672954 14.12488633 -49.2718811 13.20953369 C-48.1332663 12.77445496 -46.99465149 12.33937622 -45.8215332 11.89111328 C-44.71235031 11.46722321 -43.60316742 11.04333313 -42.46037292 10.6065979 C-39.28765502 9.39609721 -36.11288076 8.19111117 -32.93798828 6.98632812 C-29.40824733 5.6446752 -25.89130377 4.27781774 -22.38623047 2.87304688 C-21.65991928 2.58681458 -20.93360809 2.30058228 -20.18528748 2.00567627 C-18.33078575 1.27356908 -16.4813845 0.52857531 -14.63256836 -0.21777344 C-9.51031844 -1.68623801 -5.08759807 -1.85893006 0 0 Z M-127.84594727 76.4387207 C-128.78745132 76.79858063 -129.72895538 77.15844055 -130.69898987 77.52920532 C-131.72773727 77.92820038 -132.75648468 78.32719543 -133.81640625 78.73828125 C-134.89659531 79.15258392 -135.97678436 79.5668866 -137.08970642 79.9937439 C-140.66571248 81.3663433 -144.23905091 82.74575901 -147.8125 84.125 C-150.31228325 85.08561263 -152.81223106 86.04578081 -155.3125 87.00512695 C-159.16368474 88.48306835 -163.01477089 89.96125963 -166.86502075 91.44163513 C-178.12480207 95.77030396 -189.39972208 100.05858298 -200.67926025 104.33547974 C-219.54514021 111.49000969 -238.39431477 118.68746011 -257.234375 125.90966797 C-272.23510033 131.65987557 -287.24119592 137.39591301 -302.25 143.125 C-303.97215225 143.78239166 -303.97215225 143.78239166 -305.72909546 144.45306396 C-311.56804075 146.68190455 -317.40705078 148.91057548 -323.24609375 151.13916016 C-330.17467988 153.78365408 -337.10300783 156.42882386 -344.03125 159.07421875 C-345.16591705 159.5074646 -346.30058411 159.94071045 -347.46963501 160.38708496 C-353.15083852 162.55634241 -358.83201624 164.72566738 -364.51318359 166.89501953 C-375.29013684 171.0101155 -386.06730401 175.12464902 -396.84515381 179.23739624 C-401.33318633 180.95000094 -405.82112041 182.66286352 -410.30903244 184.37578392 C-413.37805727 185.54712834 -416.44715726 186.71827521 -419.51635742 187.88916016 C-422.89906229 189.17965564 -426.28158198 190.47063537 -429.6640625 191.76171875 C-431.1678093 192.33517281 -431.1678093 192.33517281 -432.70193481 192.92021179 C-434.09011917 193.45023552 -434.09011917 193.45023552 -435.50634766 193.9909668 C-436.30642242 194.29624802 -437.10649719 194.60152924 -437.93081665 194.9160614 C-440.3785243 195.86217876 -442.81532443 196.83338648 -445.25 197.8125 C-442.56628105 199.9654552 -440.1223277 201.42239434 -436.90429688 202.62744141 C-436.0440239 202.95330734 -435.18375092 203.27917328 -434.29740906 203.61491394 C-433.36395157 203.96113297 -432.43049408 204.30735199 -431.46875 204.6640625 C-430.48296463 205.03610306 -429.49717926 205.40814362 -428.48152161 205.79145813 C-425.24012059 207.01341142 -421.99536669 208.22612155 -418.75 209.4375 C-414.21105475 211.13617696 -409.67337059 212.83817637 -405.13671875 214.54296875 C-403.98358688 214.97583694 -402.83045502 215.40870514 -401.64237976 215.85469055 C-393.84868165 218.79405747 -386.11175616 221.85425628 -378.39453125 224.98828125 C-375.40562024 226.19005483 -372.41600202 227.39005449 -369.42626953 228.58978271 C-367.5238242 229.36053257 -365.62546452 230.14144827 -363.73144531 230.93267822 C-361.09763277 232.03198686 -358.45177896 233.09529863 -355.80078125 234.15234375 C-355.03312943 234.48454422 -354.2654776 234.81674469 -353.4745636 235.15901184 C-349.45931501 236.75010119 -349.45931501 236.75010119 -345.30706787 236.1802063 C-343.17159508 235.03827573 -343.17159508 235.03827573 -340.25 232.8125 C-339.53150879 232.33167969 -338.81301758 231.85085938 -338.07275391 231.35546875 C-337.46351074 230.90816406 -336.85426758 230.46085938 -336.2265625 230 C-335.52466797 229.48824219 -334.82277344 228.97648438 -334.09960938 228.44921875 C-333.36548828 227.90910156 -332.63136719 227.36898437 -331.875 226.8125 C-330.27401891 225.6450356 -328.67244243 224.47838732 -327.0703125 223.3125 C-326.2649707 222.72597656 -325.45962891 222.13945312 -324.62988281 221.53515625 C-321.02689964 218.92717007 -317.3901052 216.36829133 -313.75 213.8125 C-307.9457882 209.73255758 -302.1799949 205.6038206 -296.4375 201.4375 C-289.2528574 196.22707223 -281.99912513 191.12269059 -274.71826172 186.04785156 C-268.37486089 181.61890607 -262.09303824 177.11066516 -255.83032227 172.56860352 C-247.32731883 166.40685728 -238.73579803 160.37212135 -230.14550781 154.33300781 C-221.38121284 148.1691527 -212.65724456 141.95508119 -203.98071289 135.66821289 C-198.23212768 131.50801172 -192.44285249 127.40872342 -186.63793945 123.32763672 C-181.54095671 119.73854319 -176.48318566 116.09826844 -171.4375 112.4375 C-165.08580716 107.83114189 -158.68652926 103.29948863 -152.25 98.8125 C-145.55675128 94.14100016 -138.88242307 89.44507145 -132.25 84.6875 C-131.50234375 84.15511719 -130.7546875 83.62273437 -129.984375 83.07421875 C-126.45770413 80.53370955 -123.20528112 78.02944664 -120.25 74.8125 C-123.34302485 74.8125 -124.99058033 75.33867281 -127.84594727 76.4387207 Z M-43.25 74.8125 C-53.16767958 84.53381789 -53.16767958 84.53381789 -62.48046875 94.82421875 C-65.24930556 97.93534002 -68.24043111 100.82321079 -71.20385742 103.74682617 C-73.83072889 106.35203644 -76.35015537 108.99729765 -78.75 111.8125 C-82.0330078 115.66372069 -85.60404512 119.1953886 -89.203125 122.74609375 C-91.83023558 125.35155232 -94.34993084 127.99703425 -96.75 130.8125 C-100.0330078 134.66372069 -103.60404512 138.1953886 -107.203125 141.74609375 C-109.83023558 144.35155232 -112.34993084 146.99703425 -114.75 149.8125 C-117.59122801 153.14547901 -120.63421623 156.23858801 -123.75 159.3125 C-126.84491502 162.36587951 -129.86934277 165.43573685 -132.6875 168.75 C-136.18710497 172.85676535 -140.00982009 176.59974806 -143.84521484 180.38818359 C-147.20044557 183.71816329 -150.34717875 187.15172489 -153.41015625 190.75390625 C-156.20766867 193.88403162 -159.21624506 196.79935658 -162.20336914 199.74633789 C-164.83040002 202.3517137 -167.35000568 204.99712205 -169.75 207.8125 C-173.0330078 211.66372069 -176.60404512 215.1953886 -180.203125 218.74609375 C-182.83023558 221.35155232 -185.34993084 223.99703425 -187.75 226.8125 C-191.0330078 230.66372069 -194.60404512 234.1953886 -198.203125 237.74609375 C-200.83023558 240.35155232 -203.34993084 242.99703425 -205.75 245.8125 C-208.59122801 249.14547901 -211.63421623 252.23858801 -214.75 255.3125 C-217.84491502 258.36587951 -220.86934277 261.43573685 -223.6875 264.75 C-227.18643349 268.85597737 -231.00832589 272.59831002 -234.84301758 276.38598633 C-238.21073989 279.72833575 -241.37494209 283.1731639 -244.44921875 286.7890625 C-248.18368235 290.98527106 -252.24328899 294.87834512 -256.25 298.8125 C-254.91061969 301.92872789 -253.63725324 303.56053091 -250.85546875 305.484375 C-250.15776367 305.97574951 -249.46005859 306.46712402 -248.74121094 306.97338867 C-247.60087402 307.75999878 -247.60087402 307.75999878 -246.4375 308.5625 C-239.3412953 313.56432871 -232.38251705 318.70796746 -225.5 324 C-219.2877365 328.76566399 -213.04306319 333.44677217 -206.63574219 337.94604492 C-200.28971018 342.43418033 -194.15600766 347.20138805 -187.98828125 351.9296875 C-183.13236444 355.64344783 -178.25328455 359.29989414 -173.25 362.8125 C-166.24905232 367.74002553 -159.47259219 372.94831616 -152.70703125 378.19335938 C-151.85753906 378.84755859 -151.00804687 379.50175781 -150.1328125 380.17578125 C-149.38402832 380.75626221 -148.63524414 381.33674316 -147.86376953 381.93481445 C-144.43054218 384.40118392 -140.85442812 386.60669648 -137.25 388.8125 C-137.02323578 388.07036255 -136.79647156 387.3282251 -136.56283569 386.56359863 C-136.076129 384.97074036 -136.076129 384.97074036 -135.57958984 383.34570312 C-135.20926132 382.1337175 -134.8389328 380.92173187 -134.4573822 379.67301941 C-133.60937399 376.89771909 -132.76136107 374.12242021 -131.91334534 371.34712219 C-129.73511926 364.21843521 -127.5569239 357.08973884 -125.37884426 349.96100712 C-124.0950286 345.75915554 -122.81119151 341.55731052 -121.52734375 337.35546875 C-121.26671961 336.50248388 -121.00609547 335.64949902 -120.73757362 334.77066612 C-117.26367585 323.40123865 -113.78881843 312.03210504 -110.31297302 300.66327286 C-100.67511353 269.13911381 -91.05100084 237.6108591 -81.46057129 206.07223511 C-76.42751336 189.52091738 -71.38500181 172.97255122 -66.32421875 156.4296875 C-65.82556577 154.79937925 -65.3269187 153.1690692 -64.82827759 151.53875732 C-60.92091562 138.76449633 -60.92091562 138.76449633 -59.05322266 132.66918945 C-56.50749048 124.36073371 -53.96829578 116.05035206 -51.44281006 107.73571777 C-50.63734 105.08423361 -49.82883245 102.43370157 -49.01812744 99.78381348 C-47.85363954 95.97568209 -46.70156017 92.16386028 -45.55078125 88.3515625 C-45.02450386 86.63723526 -45.02450386 86.63723526 -44.4875946 84.88827515 C-44.02060905 83.33023666 -44.02060905 83.33023666 -43.54418945 81.74072266 C-43.13086113 80.37833969 -43.13086113 80.37833969 -42.70918274 78.98843384 C-42.00729284 76.77936586 -42.00729284 76.77936586 -43.25 74.8125 Z M-139.78515625 127.234375 C-140.50316406 127.75902344 -141.22117187 128.28367188 -141.9609375 128.82421875 C-142.73695313 129.39785156 -143.51296875 129.97148437 -144.3125 130.5625 C-145.95903508 131.76644645 -147.60618454 132.96955307 -149.25390625 134.171875 C-150.50905029 135.08936523 -150.50905029 135.08936523 -151.78955078 136.02539062 C-155.41619115 138.65954497 -159.08079483 141.23813482 -162.75 143.8125 C-168.61533952 147.93574716 -174.44426428 152.10576196 -180.25 156.3125 C-189.55975489 163.05598241 -198.95052336 169.68084937 -208.35449219 176.29199219 C-217.11878716 182.4558473 -225.84275544 188.66991881 -234.51928711 194.95678711 C-240.26787232 199.11698828 -246.05714751 203.21627658 -251.86206055 207.29736328 C-256.95904329 210.88645681 -262.01681434 214.52673156 -267.0625 218.1875 C-273.41418454 222.79385209 -279.81319224 227.32592019 -286.25 231.8125 C-294.23312267 237.37745354 -302.14269097 243.0358632 -310.01953125 248.75 C-314.69275193 252.13934527 -319.39229348 255.49132978 -324.10107422 258.83105469 C-326.79109054 260.68045922 -326.79109054 260.68045922 -329.25 262.8125 C-329.34534958 265.94809886 -329.37550879 269.06163613 -329.36352539 272.19750977 C-329.36367142 273.18276642 -329.36381744 274.16802307 -329.3639679 275.18313599 C-329.36326832 278.45674807 -329.35547385 281.73030404 -329.34765625 285.00390625 C-329.34579223 287.26692168 -329.34436825 289.52993751 -329.34336853 291.79295349 C-329.3395421 297.76228948 -329.32971075 303.73160132 -329.31866455 309.70092773 C-329.30845312 315.78694329 -329.30387149 321.87296273 -329.29882812 327.95898438 C-329.28808859 339.91016689 -329.27101068 351.86133144 -329.25 363.8125 C-326.7689619 360.71947308 -325.00364229 357.54575891 -323.25073242 353.9934082 C-322.66970261 352.82151443 -322.08867279 351.64962067 -321.49003601 350.44221497 C-321.18323095 349.81874491 -320.8764259 349.19527485 -320.56032372 348.55291176 C-319.59221653 346.58636154 -318.61867442 344.62258908 -317.64363098 342.6594696 C-314.87315817 337.07893354 -312.11279558 331.49341492 -309.35522461 325.90649414 C-307.66463581 322.48226409 -305.9679923 319.06108626 -304.2679081 315.64156151 C-303.62573679 314.34674488 -302.98589392 313.05077045 -302.34856224 311.75356483 C-297.97871707 302.85965807 -293.57001683 293.95193339 -286.6640625 286.71484375 C-286.04724609 286.06257812 -285.43042969 285.4103125 -284.79492188 284.73828125 C-284.16134766 284.08214844 -283.52777344 283.42601562 -282.875 282.75 C-282.21306641 282.05390625 -281.55113281 281.3578125 -280.86914062 280.640625 C-276.95198135 276.53473337 -272.97297838 272.49739738 -268.92578125 268.51953125 C-267.17981988 266.74101116 -265.55773595 264.89343732 -263.9375 263 C-261.0274953 259.61054373 -257.92839675 256.44798893 -254.75 253.3125 C-251.65507389 250.25913047 -248.63065663 247.18926245 -245.8125 243.875 C-242.31289503 239.76823465 -238.49017991 236.02525194 -234.65478516 232.23681641 C-231.29955443 228.90683671 -228.15282125 225.47327511 -225.08984375 221.87109375 C-222.29233133 218.74096838 -219.28375494 215.82564342 -216.29663086 212.87866211 C-213.66959998 210.2732863 -211.14999432 207.62787795 -208.75 204.8125 C-205.4669922 200.96127931 -201.89595488 197.4296114 -198.296875 193.87890625 C-195.66976442 191.27344768 -193.15006916 188.62796575 -190.75 185.8125 C-187.90877199 182.47952099 -184.86578377 179.38641199 -181.75 176.3125 C-178.65508498 173.25912049 -175.63065723 170.18926315 -172.8125 166.875 C-169.31289503 162.76823465 -165.49017991 159.02525194 -161.65478516 155.23681641 C-158.30139691 151.90866532 -155.1540665 148.4796116 -152.09765625 144.875 C-149.71814773 142.21880445 -147.17214103 139.74321545 -144.625 137.25 C-140.64971704 133.32392962 -137.27297078 129.50331673 -134.25 124.8125 C-136.86504208 124.8125 -137.68905566 125.68973995 -139.78515625 127.234375 Z " fill="" transform="translate(504.25,34.1875)"/>
</svg>
