<svg xmlns="http://www.w3.org/2000/svg" width="512" height="512" viewBox="0 0 512 512" version="1.1"><path d="M 493 33.697 L 491.500 34.236 253 125.216 L 14.500 216.195 9.683 218.250 L 4.865 220.304 2.433 223.884 L 0 227.464 0 232.364 L 0 237.264 2.097 240.656 L 4.193 244.048 7.188 245.597 L 10.183 247.146 72.342 271.168 L 134.500 295.191 139.750 297.167 L 145 299.144 145 383.840 L 145 468.536 147.473 472.175 L 149.946 475.814 154.430 477.526 L 158.914 479.239 162.207 478.616 L 165.500 477.994 168.593 476.107 L 171.686 474.220 200.464 417.360 L 229.241 360.500 229.511 360.193 L 229.781 359.886 298.055 410.562 L 366.328 461.239 369.632 462.620 L 372.936 464 374.948 464 L 376.960 464 380.993 462.386 L 385.026 460.773 387.051 457.928 L 389.076 455.084 450.538 253.582 L 512 52.080 512 47.908 L 512 43.736 509.845 40.250 L 507.691 36.764 503.595 34.904 L 499.500 33.044 497 33.101 L 494.500 33.158 493 33.697 M 225.500 168.559 L 62.500 230.927 60.143 231.749 L 57.786 232.571 107.829 251.864 L 157.872 271.157 272.686 189.445 L 387.500 107.734 388.450 106.867 L 389.400 106 388.950 106.095 L 388.500 106.191 225.500 168.559 M 363.500 211.675 L 264.500 316.123 255.887 325.327 L 247.274 334.532 306.884 378.774 L 366.494 423.017 367.739 419.258 L 368.984 415.500 415.940 261.531 L 462.896 107.562 462.698 107.395 L 462.500 107.227 363.500 211.675 M 274.295 225.828 L 175.090 296.500 175.090 348 L 175.090 399.500 193.795 362.711 L 212.500 325.922 292 242.277 L 371.500 158.632 372.807 156.816 L 374.113 155 373.807 155.078 L 373.500 155.155 274.295 225.828" stroke="none" fill="#040404" fill-rule="evenodd"/></svg>